<svg xmlns="http://www.w3.org/2000/svg" width="18" height="18" viewBox="0 0 18 18">
  <g id="Icon_feather-arrow-up-right" data-name="Icon feather-arrow-up-right" transform="translate(-9 -9)">
    <path id="Pfad_472" data-name="Pfad 472" d="M10.5,27a1.5,1.5,0,0,1-1.061-2.561l15-15a1.5,1.5,0,0,1,2.121,2.121l-15,15A1.5,1.5,0,0,1,10.5,27Z" fill="#161722"/>
    <path id="Pfad_473" data-name="Pfad 473" d="M25.5,27A1.5,1.5,0,0,1,24,25.5V12H10.5a1.5,1.5,0,0,1,0-3h15A1.5,1.5,0,0,1,27,10.5v15A1.5,1.5,0,0,1,25.5,27Z" fill="#161722"/>
  </g>
</svg>
